<svg width="417" height="293" viewBox="0 0 417 293" fill="none" xmlns="http://www.w3.org/2000/svg">
<rect x="0.5" y="0.5" width="416" height="277" fill="white" stroke="#2C55EF"/>
<rect x="114" y="44" width="189" height="189" fill="white" stroke="#2C55EF"/>
<rect x="208" y="82" width="19" height="19" fill="#009400"/>
<path d="M1.05682 290V281.273H6.28977V282.21H2.11364V285.159H5.89773V286.097H2.11364V290H1.05682ZM10.2273 290.136C9.59659 290.136 9.05256 289.997 8.59517 289.719C8.14062 289.438 7.78977 289.045 7.54261 288.543C7.2983 288.037 7.17614 287.449 7.17614 286.778C7.17614 286.108 7.2983 285.517 7.54261 285.006C7.78977 284.491 8.13352 284.091 8.57386 283.804C9.01705 283.514 9.53409 283.369 10.125 283.369C10.4659 283.369 10.8026 283.426 11.1349 283.54C11.4673 283.653 11.7699 283.838 12.0426 284.094C12.3153 284.347 12.5327 284.682 12.6946 285.099C12.8565 285.517 12.9375 286.031 12.9375 286.642V287.068H7.89205V286.199H11.9148C11.9148 285.83 11.8409 285.5 11.6932 285.21C11.5483 284.92 11.3409 284.692 11.071 284.524C10.804 284.357 10.4886 284.273 10.125 284.273C9.72443 284.273 9.37784 284.372 9.08523 284.571C8.79545 284.767 8.57244 285.023 8.41619 285.338C8.25994 285.653 8.18182 285.991 8.18182 286.352V286.932C8.18182 287.426 8.26705 287.845 8.4375 288.189C8.6108 288.53 8.85085 288.79 9.15767 288.969C9.46449 289.145 9.82102 289.233 10.2273 289.233C10.4915 289.233 10.7301 289.196 10.9432 289.122C11.1591 289.045 11.3452 288.932 11.5014 288.781C11.6577 288.628 11.7784 288.437 11.8636 288.21L12.8352 288.483C12.733 288.812 12.5611 289.102 12.3196 289.352C12.0781 289.599 11.7798 289.793 11.4247 289.932C11.0696 290.068 10.6705 290.136 10.2273 290.136ZM15.473 286.062V290H14.4673V283.455H15.4389V284.477H15.5241C15.6776 284.145 15.9105 283.878 16.223 283.676C16.5355 283.472 16.9389 283.369 17.4332 283.369C17.8764 283.369 18.2642 283.46 18.5966 283.642C18.929 283.821 19.1875 284.094 19.3722 284.46C19.5568 284.824 19.6491 285.284 19.6491 285.841V290H18.6435V285.909C18.6435 285.395 18.5099 284.994 18.2429 284.707C17.9759 284.418 17.6094 284.273 17.1435 284.273C16.8224 284.273 16.5355 284.342 16.2827 284.482C16.0327 284.621 15.8352 284.824 15.6903 285.091C15.5455 285.358 15.473 285.682 15.473 286.062ZM24.2312 290.136C23.6005 290.136 23.0565 289.997 22.5991 289.719C22.1445 289.438 21.7937 289.045 21.5465 288.543C21.3022 288.037 21.18 287.449 21.18 286.778C21.18 286.108 21.3022 285.517 21.5465 285.006C21.7937 284.491 22.1374 284.091 22.5778 283.804C23.021 283.514 23.538 283.369 24.1289 283.369C24.4698 283.369 24.8065 283.426 25.1388 283.54C25.4712 283.653 25.7738 283.838 26.0465 284.094C26.3192 284.347 26.5366 284.682 26.6985 285.099C26.8604 285.517 26.9414 286.031 26.9414 286.642V287.068H21.896V286.199H25.9187C25.9187 285.83 25.8448 285.5 25.6971 285.21C25.5522 284.92 25.3448 284.692 25.0749 284.524C24.8079 284.357 24.4925 284.273 24.1289 284.273C23.7283 284.273 23.3817 284.372 23.0891 284.571C22.7994 284.767 22.5763 285.023 22.4201 285.338C22.2638 285.653 22.1857 285.991 22.1857 286.352V286.932C22.1857 287.426 22.271 287.845 22.4414 288.189C22.6147 288.53 22.8548 288.79 23.1616 288.969C23.4684 289.145 23.8249 289.233 24.2312 289.233C24.4954 289.233 24.734 289.196 24.9471 289.122C25.163 289.045 25.3491 288.932 25.5053 288.781C25.6616 288.628 25.7823 288.437 25.8675 288.21L26.8391 288.483C26.7369 288.812 26.565 289.102 26.3235 289.352C26.082 289.599 25.7837 289.793 25.4286 289.932C25.0735 290.068 24.6744 290.136 24.2312 290.136ZM24.9641 282.67L24.0778 281.477L23.1914 282.67H22.2369V282.602L23.6175 280.83H24.538L25.9187 282.602V282.67H24.9641ZM31.3178 283.455V284.307H27.9258V283.455H31.3178ZM28.9144 281.886H29.9201V288.125C29.9201 288.409 29.9613 288.622 30.0437 288.764C30.1289 288.903 30.2369 288.997 30.3675 289.045C30.5011 289.091 30.6417 289.114 30.7894 289.114C30.9002 289.114 30.9911 289.108 31.0621 289.097C31.1332 289.082 31.19 289.071 31.2326 289.062L31.4371 289.966C31.369 289.991 31.2738 290.017 31.1516 290.043C31.0295 290.071 30.8746 290.085 30.6871 290.085C30.4031 290.085 30.1246 290.024 29.8519 289.902C29.582 289.78 29.3576 289.594 29.1786 289.344C29.0025 289.094 28.9144 288.778 28.9144 288.398V281.886ZM32.8306 290V283.455H33.8022V284.443H33.8704C33.9897 284.119 34.2056 283.857 34.5181 283.655C34.8306 283.453 35.1829 283.352 35.5749 283.352C35.6488 283.352 35.7411 283.354 35.8519 283.357C35.9627 283.359 36.0465 283.364 36.1033 283.369V284.392C36.0692 284.384 35.9911 284.371 35.869 284.354C35.7496 284.334 35.6232 284.324 35.4897 284.324C35.1715 284.324 34.8874 284.391 34.6374 284.524C34.3903 284.655 34.1942 284.837 34.0494 285.07C33.9073 285.3 33.8363 285.562 33.8363 285.858V290H32.8306ZM39.8406 290.136C39.2099 290.136 38.6658 289.997 38.2085 289.719C37.7539 289.438 37.4031 289.045 37.1559 288.543C36.9116 288.037 36.7894 287.449 36.7894 286.778C36.7894 286.108 36.9116 285.517 37.1559 285.006C37.4031 284.491 37.7468 284.091 38.1871 283.804C38.6303 283.514 39.1474 283.369 39.7383 283.369C40.0792 283.369 40.4158 283.426 40.7482 283.54C41.0806 283.653 41.3832 283.838 41.6559 284.094C41.9286 284.347 42.146 284.682 42.3079 285.099C42.4698 285.517 42.5508 286.031 42.5508 286.642V287.068H37.5053V286.199H41.5281C41.5281 285.83 41.4542 285.5 41.3065 285.21C41.1616 284.92 40.9542 284.692 40.6843 284.524C40.4173 284.357 40.1019 284.273 39.7383 284.273C39.3377 284.273 38.9911 284.372 38.6985 284.571C38.4087 284.767 38.1857 285.023 38.0295 285.338C37.8732 285.653 37.7951 285.991 37.7951 286.352V286.932C37.7951 287.426 37.8803 287.845 38.0508 288.189C38.2241 288.53 38.4641 288.79 38.771 288.969C39.0778 289.145 39.4343 289.233 39.8406 289.233C40.1048 289.233 40.3434 289.196 40.5565 289.122C40.7724 289.045 40.9585 288.932 41.1147 288.781C41.271 288.628 41.3917 288.437 41.4769 288.21L42.4485 288.483C42.3462 288.812 42.1744 289.102 41.9329 289.352C41.6914 289.599 41.3931 289.793 41.038 289.932C40.6829 290.068 40.2837 290.136 39.8406 290.136ZM49.9272 290.136C49.3817 290.136 48.9002 289.999 48.4826 289.723C48.065 289.445 47.7383 289.053 47.5025 288.547C47.2667 288.038 47.1488 287.438 47.1488 286.744C47.1488 286.057 47.2667 285.46 47.5025 284.955C47.7383 284.449 48.0664 284.058 48.4869 283.783C48.9073 283.507 49.3931 283.369 49.9442 283.369C50.3704 283.369 50.707 283.44 50.9542 283.582C51.2042 283.722 51.3945 283.881 51.5252 284.06C51.6587 284.236 51.7624 284.381 51.8363 284.494H51.9215V281.273H52.9272V290H51.9556V288.994H51.8363C51.7624 289.114 51.6573 289.264 51.521 289.446C51.3846 289.625 51.19 289.786 50.9371 289.928C50.6843 290.067 50.3477 290.136 49.9272 290.136ZM50.0636 289.233C50.467 289.233 50.8079 289.128 51.0863 288.918C51.3647 288.705 51.5763 288.411 51.7212 288.036C51.8661 287.658 51.9386 287.222 51.9386 286.727C51.9386 286.239 51.8675 285.811 51.7255 285.445C51.5835 285.075 51.3732 284.788 51.0948 284.584C50.8164 284.376 50.4727 284.273 50.0636 284.273C49.6374 284.273 49.2823 284.382 48.9982 284.601C48.717 284.817 48.5053 285.111 48.3633 285.483C48.2241 285.852 48.1545 286.267 48.1545 286.727C48.1545 287.193 48.2255 287.616 48.3675 287.997C48.5124 288.375 48.7255 288.676 49.0067 288.901C49.2908 289.122 49.6431 289.233 50.0636 289.233ZM59.0337 287.324V283.455H60.0394V290H59.0337V288.892H58.9656C58.8121 289.224 58.5735 289.507 58.2496 289.74C57.9258 289.97 57.5167 290.085 57.0224 290.085C56.6133 290.085 56.2496 289.996 55.9315 289.817C55.6133 289.635 55.3633 289.362 55.1815 288.999C54.9996 288.632 54.9087 288.17 54.9087 287.614V283.455H55.9144V287.545C55.9144 288.023 56.0479 288.403 56.315 288.688C56.5849 288.972 56.9286 289.114 57.3462 289.114C57.5962 289.114 57.8505 289.05 58.109 288.922C58.3704 288.794 58.5891 288.598 58.7653 288.334C58.9442 288.07 59.0337 287.733 59.0337 287.324ZM66.2621 286.062V290H65.2564V283.455H66.228V284.477H66.3132C66.4666 284.145 66.6996 283.878 67.0121 283.676C67.3246 283.472 67.728 283.369 68.2223 283.369C68.6655 283.369 69.0533 283.46 69.3857 283.642C69.718 283.821 69.9766 284.094 70.1612 284.46C70.3459 284.824 70.4382 285.284 70.4382 285.841V290H69.4325V285.909C69.4325 285.395 69.299 284.994 69.032 284.707C68.7649 284.418 68.3984 284.273 67.9325 284.273C67.6115 284.273 67.3246 284.342 67.0717 284.482C66.8217 284.621 66.6243 284.824 66.4794 285.091C66.3345 285.358 66.2621 285.682 66.2621 286.062ZM74.2021 290.153C73.7873 290.153 73.4109 290.075 73.0728 289.919C72.7347 289.76 72.4663 289.531 72.2674 289.233C72.0685 288.932 71.9691 288.568 71.9691 288.142C71.9691 287.767 72.043 287.463 72.1907 287.23C72.3384 286.994 72.5359 286.81 72.783 286.676C73.0302 286.543 73.3029 286.443 73.6012 286.378C73.9023 286.31 74.2049 286.256 74.5089 286.216C74.9066 286.165 75.229 286.126 75.4762 286.101C75.7262 286.072 75.908 286.026 76.0217 285.96C76.1381 285.895 76.1964 285.781 76.1964 285.619V285.585C76.1964 285.165 76.0813 284.838 75.8512 284.605C75.6239 284.372 75.2788 284.256 74.8157 284.256C74.3356 284.256 73.9592 284.361 73.6864 284.571C73.4137 284.781 73.2219 285.006 73.1112 285.244L72.1566 284.903C72.3271 284.506 72.5543 284.196 72.8384 283.974C73.1254 283.75 73.4379 283.594 73.7759 283.506C74.1168 283.415 74.4521 283.369 74.7816 283.369C74.9918 283.369 75.2333 283.395 75.506 283.446C75.7816 283.494 76.0472 283.595 76.3029 283.749C76.5614 283.902 76.7759 284.134 76.9464 284.443C77.1168 284.753 77.2021 285.168 77.2021 285.688V290H76.1964V289.114H76.1452C76.0771 289.256 75.9634 289.408 75.8043 289.57C75.6452 289.732 75.4336 289.869 75.1694 289.983C74.9052 290.097 74.5827 290.153 74.2021 290.153ZM74.3555 289.25C74.7532 289.25 75.0884 289.172 75.3612 289.016C75.6367 288.859 75.8441 288.658 75.9833 288.411C76.1254 288.163 76.1964 287.903 76.1964 287.631V286.71C76.1538 286.761 76.06 286.808 75.9151 286.851C75.7731 286.891 75.6083 286.926 75.4208 286.957C75.2362 286.986 75.0558 287.011 74.8796 287.034C74.7063 287.054 74.5657 287.071 74.4577 287.085C74.1964 287.119 73.9521 287.175 73.7248 287.251C73.5004 287.325 73.3185 287.437 73.1793 287.588C73.043 287.736 72.9748 287.937 72.9748 288.193C72.9748 288.543 73.104 288.807 73.3626 288.986C73.6239 289.162 73.9549 289.25 74.3555 289.25ZM84.1555 283.455L81.7351 290H80.7124L78.2919 283.455H79.3828L81.1896 288.67H81.2578L83.0646 283.455H84.1555ZM85.483 290V283.455H86.4886V290H85.483ZM85.9943 282.364C85.7983 282.364 85.6293 282.297 85.4872 282.163C85.348 282.03 85.2784 281.869 85.2784 281.682C85.2784 281.494 85.348 281.334 85.4872 281.2C85.6293 281.067 85.7983 281 85.9943 281C86.1903 281 86.358 281.067 86.4972 281.2C86.6392 281.334 86.7102 281.494 86.7102 281.682C86.7102 281.869 86.6392 282.03 86.4972 282.163C86.358 282.297 86.1903 282.364 85.9943 282.364ZM90.9727 292.591C90.4869 292.591 90.0692 292.528 89.7198 292.403C89.3704 292.281 89.0792 292.119 88.8462 291.918C88.6161 291.719 88.4329 291.506 88.2965 291.278L89.0977 290.716C89.1886 290.835 89.3036 290.972 89.4428 291.125C89.582 291.281 89.7724 291.416 90.0138 291.53C90.2582 291.646 90.5778 291.705 90.9727 291.705C91.5011 291.705 91.9371 291.577 92.2809 291.321C92.6246 291.065 92.7965 290.665 92.7965 290.119V288.79H92.7113C92.6374 288.909 92.5323 289.057 92.396 289.233C92.2624 289.406 92.0692 289.561 91.8164 289.697C91.5664 289.831 91.2283 289.898 90.8022 289.898C90.2738 289.898 89.7994 289.773 89.3789 289.523C88.9613 289.273 88.6303 288.909 88.386 288.432C88.1445 287.955 88.0238 287.375 88.0238 286.693C88.0238 286.023 88.1417 285.439 88.3775 284.942C88.6133 284.442 88.9414 284.055 89.3619 283.783C89.7823 283.507 90.2681 283.369 90.8192 283.369C91.2454 283.369 91.5835 283.44 91.8335 283.582C92.0863 283.722 92.2795 283.881 92.413 284.06C92.5494 284.236 92.6545 284.381 92.7283 284.494H92.8306V283.455H93.8022V290.188C93.8022 290.75 93.6744 291.207 93.4187 291.56C93.1658 291.915 92.8249 292.175 92.396 292.339C91.9698 292.507 91.4954 292.591 90.9727 292.591ZM90.9386 288.994C91.342 288.994 91.6829 288.902 91.9613 288.717C92.2397 288.533 92.4513 288.267 92.5962 287.92C92.7411 287.574 92.8136 287.159 92.8136 286.676C92.8136 286.205 92.7425 285.788 92.6005 285.428C92.4585 285.067 92.2482 284.784 91.9698 284.58C91.6914 284.375 91.3477 284.273 90.9386 284.273C90.5124 284.273 90.1573 284.381 89.8732 284.597C89.592 284.812 89.3803 285.102 89.2383 285.466C89.0991 285.83 89.0295 286.233 89.0295 286.676C89.0295 287.131 89.1005 287.533 89.2425 287.882C89.3874 288.229 89.6005 288.501 89.8817 288.7C90.1658 288.896 90.5181 288.994 90.9386 288.994ZM97.5692 290.153C97.1545 290.153 96.7781 290.075 96.44 289.919C96.1019 289.76 95.8335 289.531 95.6346 289.233C95.4357 288.932 95.3363 288.568 95.3363 288.142C95.3363 287.767 95.4102 287.463 95.5579 287.23C95.7056 286.994 95.9031 286.81 96.1502 286.676C96.3974 286.543 96.6701 286.443 96.9684 286.378C97.2695 286.31 97.5721 286.256 97.8761 286.216C98.2738 286.165 98.5962 286.126 98.8434 286.101C99.0934 286.072 99.2752 286.026 99.3888 285.96C99.5053 285.895 99.5636 285.781 99.5636 285.619V285.585C99.5636 285.165 99.4485 284.838 99.2184 284.605C98.9911 284.372 98.646 284.256 98.1829 284.256C97.7028 284.256 97.3263 284.361 97.0536 284.571C96.7809 284.781 96.5891 285.006 96.4783 285.244L95.5238 284.903C95.6942 284.506 95.9215 284.196 96.2056 283.974C96.4925 283.75 96.805 283.594 97.1431 283.506C97.484 283.415 97.8192 283.369 98.1488 283.369C98.359 283.369 98.6005 283.395 98.8732 283.446C99.1488 283.494 99.4144 283.595 99.6701 283.749C99.9286 283.902 100.143 284.134 100.314 284.443C100.484 284.753 100.569 285.168 100.569 285.688V290H99.5636V289.114H99.5124C99.4442 289.256 99.3306 289.408 99.1715 289.57C99.0124 289.732 98.8008 289.869 98.5366 289.983C98.2724 290.097 97.9499 290.153 97.5692 290.153ZM97.7227 289.25C98.1204 289.25 98.4556 289.172 98.7283 289.016C99.0039 288.859 99.2113 288.658 99.3505 288.411C99.4925 288.163 99.5636 287.903 99.5636 287.631V286.71C99.521 286.761 99.4272 286.808 99.2823 286.851C99.1403 286.891 98.9755 286.926 98.788 286.957C98.6033 286.986 98.4229 287.011 98.2468 287.034C98.0735 287.054 97.9329 287.071 97.8249 287.085C97.5636 287.119 97.3192 287.175 97.092 287.251C96.8675 287.325 96.6857 287.437 96.5465 287.588C96.4102 287.736 96.342 287.937 96.342 288.193C96.342 288.543 96.4712 288.807 96.7298 288.986C96.9911 289.162 97.3221 289.25 97.7227 289.25ZM105.251 283.455V284.307H101.859V283.455H105.251ZM102.848 281.886H103.854V288.125C103.854 288.409 103.895 288.622 103.977 288.764C104.063 288.903 104.17 288.997 104.301 289.045C104.435 289.091 104.575 289.114 104.723 289.114C104.834 289.114 104.925 289.108 104.996 289.097C105.067 289.082 105.124 289.071 105.166 289.062L105.371 289.966C105.303 289.991 105.207 290.017 105.085 290.043C104.963 290.071 104.808 290.085 104.621 290.085C104.337 290.085 104.058 290.024 103.786 289.902C103.516 289.78 103.291 289.594 103.112 289.344C102.936 289.094 102.848 288.778 102.848 288.398V281.886ZM109.438 290.136C108.808 290.136 108.263 289.997 107.806 289.719C107.352 289.438 107.001 289.045 106.754 288.543C106.509 288.037 106.387 287.449 106.387 286.778C106.387 286.108 106.509 285.517 106.754 285.006C107.001 284.491 107.344 284.091 107.785 283.804C108.228 283.514 108.745 283.369 109.336 283.369C109.677 283.369 110.013 283.426 110.346 283.54C110.678 283.653 110.981 283.838 111.254 284.094C111.526 284.347 111.744 284.682 111.906 285.099C112.067 285.517 112.148 286.031 112.148 286.642V287.068H107.103V286.199H111.126C111.126 285.83 111.052 285.5 110.904 285.21C110.759 284.92 110.552 284.692 110.282 284.524C110.015 284.357 109.7 284.273 109.336 284.273C108.935 284.273 108.589 284.372 108.296 284.571C108.006 284.767 107.783 285.023 107.627 285.338C107.471 285.653 107.393 285.991 107.393 286.352V286.932C107.393 287.426 107.478 287.845 107.648 288.189C107.822 288.53 108.062 288.79 108.369 288.969C108.675 289.145 109.032 289.233 109.438 289.233C109.702 289.233 109.941 289.196 110.154 289.122C110.37 289.045 110.556 288.932 110.712 288.781C110.869 288.628 110.989 288.437 111.075 288.21L112.046 288.483C111.944 288.812 111.772 289.102 111.531 289.352C111.289 289.599 110.991 289.793 110.636 289.932C110.281 290.068 109.881 290.136 109.438 290.136ZM117.803 287.324V283.455H118.809V290H117.803V288.892H117.735C117.582 289.224 117.343 289.507 117.019 289.74C116.695 289.97 116.286 290.085 115.792 290.085C115.383 290.085 115.019 289.996 114.701 289.817C114.383 289.635 114.133 289.362 113.951 288.999C113.769 288.632 113.678 288.17 113.678 287.614V283.455H114.684V287.545C114.684 288.023 114.817 288.403 115.085 288.688C115.354 288.972 115.698 289.114 116.116 289.114C116.366 289.114 116.62 289.05 116.879 288.922C117.14 288.794 117.359 288.598 117.535 288.334C117.714 288.07 117.803 287.733 117.803 287.324ZM120.651 290V283.455H121.623V284.443H121.691C121.81 284.119 122.026 283.857 122.338 283.655C122.651 283.453 123.003 283.352 123.395 283.352C123.469 283.352 123.561 283.354 123.672 283.357C123.783 283.359 123.867 283.364 123.924 283.369V284.392C123.89 284.384 123.811 284.371 123.689 284.354C123.57 284.334 123.444 284.324 123.31 284.324C122.992 284.324 122.708 284.391 122.458 284.524C122.211 284.655 122.015 284.837 121.87 285.07C121.728 285.3 121.657 285.562 121.657 285.858V290H120.651Z" fill="#2C55EF"/>
<path d="M119.557 239.92L118.653 240.176C118.597 240.026 118.513 239.879 118.402 239.737C118.294 239.592 118.146 239.473 117.959 239.379C117.771 239.286 117.531 239.239 117.239 239.239C116.838 239.239 116.504 239.331 116.237 239.516C115.973 239.697 115.841 239.929 115.841 240.21C115.841 240.46 115.932 240.658 116.114 240.803C116.295 240.947 116.58 241.068 116.966 241.165L117.938 241.403C118.523 241.545 118.959 241.763 119.246 242.055C119.533 242.345 119.676 242.719 119.676 243.176C119.676 243.551 119.568 243.886 119.352 244.182C119.139 244.477 118.841 244.71 118.457 244.881C118.074 245.051 117.628 245.136 117.119 245.136C116.452 245.136 115.899 244.991 115.462 244.702C115.024 244.412 114.747 243.989 114.631 243.432L115.585 243.193C115.676 243.545 115.848 243.81 116.101 243.986C116.357 244.162 116.69 244.25 117.102 244.25C117.571 244.25 117.943 244.151 118.219 243.952C118.497 243.75 118.636 243.509 118.636 243.227C118.636 243 118.557 242.81 118.398 242.656C118.239 242.5 117.994 242.384 117.665 242.307L116.574 242.051C115.974 241.909 115.534 241.689 115.253 241.391C114.974 241.089 114.835 240.713 114.835 240.261C114.835 239.892 114.939 239.565 115.146 239.281C115.357 238.997 115.642 238.774 116.003 238.612C116.366 238.45 116.778 238.369 117.239 238.369C117.886 238.369 118.395 238.511 118.764 238.795C119.136 239.08 119.401 239.455 119.557 239.92ZM126.542 238.455L124.122 245H123.099L120.679 238.455H121.77L123.576 243.67H123.645L125.451 238.455H126.542ZM130.277 247.591C129.792 247.591 129.374 247.528 129.025 247.403C128.675 247.281 128.384 247.119 128.151 246.918C127.921 246.719 127.738 246.506 127.601 246.278L128.402 245.716C128.493 245.835 128.608 245.972 128.748 246.125C128.887 246.281 129.077 246.416 129.319 246.53C129.563 246.646 129.882 246.705 130.277 246.705C130.806 246.705 131.242 246.577 131.586 246.321C131.929 246.065 132.101 245.665 132.101 245.119V243.79H132.016C131.942 243.909 131.837 244.057 131.701 244.233C131.567 244.406 131.374 244.561 131.121 244.697C130.871 244.831 130.533 244.898 130.107 244.898C129.578 244.898 129.104 244.773 128.684 244.523C128.266 244.273 127.935 243.909 127.691 243.432C127.449 242.955 127.328 242.375 127.328 241.693C127.328 241.023 127.446 240.439 127.682 239.942C127.918 239.442 128.246 239.055 128.667 238.783C129.087 238.507 129.573 238.369 130.124 238.369C130.55 238.369 130.888 238.44 131.138 238.582C131.391 238.722 131.584 238.881 131.718 239.06C131.854 239.236 131.959 239.381 132.033 239.494H132.135V238.455H133.107V245.188C133.107 245.75 132.979 246.207 132.723 246.56C132.471 246.915 132.13 247.175 131.701 247.339C131.275 247.507 130.8 247.591 130.277 247.591ZM130.243 243.994C130.647 243.994 130.988 243.902 131.266 243.717C131.544 243.533 131.756 243.267 131.901 242.92C132.046 242.574 132.118 242.159 132.118 241.676C132.118 241.205 132.047 240.788 131.905 240.428C131.763 240.067 131.553 239.784 131.275 239.58C130.996 239.375 130.652 239.273 130.243 239.273C129.817 239.273 129.462 239.381 129.178 239.597C128.897 239.812 128.685 240.102 128.543 240.466C128.404 240.83 128.334 241.233 128.334 241.676C128.334 242.131 128.405 242.533 128.547 242.882C128.692 243.229 128.905 243.501 129.186 243.7C129.471 243.896 129.823 243.994 130.243 243.994Z" fill="#2C55EF"/>
<path d="M190.699 27.2102V26.3409L194.534 20.2727H195.165V21.6193H194.739L191.841 26.2045V26.2727H197.006V27.2102H190.699ZM194.807 29V26.946V26.5412V20.2727H195.812V29H194.807ZM201.449 29.1193C200.807 29.1193 200.26 28.9446 199.809 28.5952C199.357 28.2429 199.012 27.733 198.773 27.0653C198.534 26.3949 198.415 25.5852 198.415 24.6364C198.415 23.6932 198.534 22.8878 198.773 22.2202C199.015 21.5497 199.361 21.0384 199.813 20.6861C200.267 20.331 200.813 20.1534 201.449 20.1534C202.086 20.1534 202.63 20.331 203.081 20.6861C203.536 21.0384 203.882 21.5497 204.121 22.2202C204.363 22.8878 204.483 23.6932 204.483 24.6364C204.483 25.5852 204.364 26.3949 204.125 27.0653C203.887 27.733 203.542 28.2429 203.09 28.5952C202.638 28.9446 202.091 29.1193 201.449 29.1193ZM201.449 28.1818C202.086 28.1818 202.58 27.875 202.932 27.2614C203.284 26.6477 203.461 25.7727 203.461 24.6364C203.461 23.8807 203.38 23.2372 203.218 22.706C203.059 22.1747 202.828 21.7699 202.527 21.4915C202.229 21.2131 201.87 21.0739 201.449 21.0739C200.819 21.0739 200.326 21.3849 199.971 22.0071C199.615 22.6264 199.438 23.5028 199.438 24.6364C199.438 25.392 199.517 26.0341 199.676 26.5625C199.836 27.0909 200.064 27.4929 200.363 27.7685C200.664 28.044 201.026 28.1818 201.449 28.1818ZM208.949 29.1193C208.307 29.1193 207.76 28.9446 207.309 28.5952C206.857 28.2429 206.512 27.733 206.273 27.0653C206.034 26.3949 205.915 25.5852 205.915 24.6364C205.915 23.6932 206.034 22.8878 206.273 22.2202C206.515 21.5497 206.861 21.0384 207.313 20.6861C207.767 20.331 208.313 20.1534 208.949 20.1534C209.586 20.1534 210.13 20.331 210.581 20.6861C211.036 21.0384 211.382 21.5497 211.621 22.2202C211.863 22.8878 211.983 23.6932 211.983 24.6364C211.983 25.5852 211.864 26.3949 211.625 27.0653C211.387 27.733 211.042 28.2429 210.59 28.5952C210.138 28.9446 209.591 29.1193 208.949 29.1193ZM208.949 28.1818C209.586 28.1818 210.08 27.875 210.432 27.2614C210.784 26.6477 210.961 25.7727 210.961 24.6364C210.961 23.8807 210.88 23.2372 210.718 22.706C210.559 22.1747 210.328 21.7699 210.027 21.4915C209.729 21.2131 209.37 21.0739 208.949 21.0739C208.319 21.0739 207.826 21.3849 207.471 22.0071C207.115 22.6264 206.938 23.5028 206.938 24.6364C206.938 25.392 207.017 26.0341 207.176 26.5625C207.336 27.0909 207.564 27.4929 207.863 27.7685C208.164 28.044 208.526 28.1818 208.949 28.1818ZM213.62 31.4545V22.4545H214.591V23.4943H214.711C214.784 23.3807 214.887 23.2358 215.017 23.0597C215.151 22.8807 215.341 22.7216 215.588 22.5824C215.838 22.4403 216.176 22.3693 216.603 22.3693C217.154 22.3693 217.64 22.5071 218.06 22.7827C218.48 23.0582 218.809 23.4489 219.044 23.9545C219.28 24.4602 219.398 25.0568 219.398 25.7443C219.398 26.4375 219.28 27.0384 219.044 27.5469C218.809 28.0526 218.482 28.4446 218.064 28.723C217.647 28.9986 217.165 29.1364 216.62 29.1364C216.199 29.1364 215.863 29.0668 215.61 28.9276C215.357 28.7855 215.162 28.625 215.026 28.446C214.89 28.2642 214.784 28.1136 214.711 27.9943H214.625V31.4545H213.62ZM214.608 25.7273C214.608 26.2216 214.681 26.6577 214.826 27.0355C214.971 27.4105 215.182 27.7045 215.461 27.9176C215.739 28.1278 216.08 28.233 216.483 28.233C216.904 28.233 217.255 28.1222 217.536 27.9006C217.82 27.6761 218.033 27.375 218.175 26.9972C218.32 26.6165 218.392 26.1932 218.392 25.7273C218.392 25.267 218.321 24.8523 218.179 24.483C218.04 24.1108 217.828 23.8168 217.544 23.6009C217.263 23.3821 216.909 23.2727 216.483 23.2727C216.074 23.2727 215.73 23.3764 215.452 23.5838C215.174 23.7884 214.963 24.0753 214.821 24.4446C214.679 24.8111 214.608 25.2386 214.608 25.7273ZM221.413 22.4545L222.981 25.1307L224.549 22.4545H225.708L223.594 25.7273L225.708 29H224.549L222.981 26.4602L221.413 29H220.254L222.333 25.7273L220.254 22.4545H221.413Z" fill="#E3116C"/>
<path d="M233.393 114.273V123H232.337V115.381H232.286L230.155 116.795V115.722L232.337 114.273H233.393ZM238.75 123.119C238.108 123.119 237.561 122.945 237.109 122.595C236.658 122.243 236.313 121.733 236.074 121.065C235.835 120.395 235.716 119.585 235.716 118.636C235.716 117.693 235.835 116.888 236.074 116.22C236.315 115.55 236.662 115.038 237.114 114.686C237.568 114.331 238.114 114.153 238.75 114.153C239.386 114.153 239.93 114.331 240.382 114.686C240.837 115.038 241.183 115.55 241.422 116.22C241.663 116.888 241.784 117.693 241.784 118.636C241.784 119.585 241.665 120.395 241.426 121.065C241.188 121.733 240.842 122.243 240.391 122.595C239.939 122.945 239.392 123.119 238.75 123.119ZM238.75 122.182C239.386 122.182 239.881 121.875 240.233 121.261C240.585 120.648 240.761 119.773 240.761 118.636C240.761 117.881 240.68 117.237 240.518 116.706C240.359 116.175 240.129 115.77 239.828 115.491C239.53 115.213 239.17 115.074 238.75 115.074C238.119 115.074 237.626 115.385 237.271 116.007C236.916 116.626 236.739 117.503 236.739 118.636C236.739 119.392 236.818 120.034 236.977 120.562C237.136 121.091 237.365 121.493 237.663 121.768C237.964 122.044 238.327 122.182 238.75 122.182ZM246.25 123.119C245.608 123.119 245.061 122.945 244.609 122.595C244.158 122.243 243.813 121.733 243.574 121.065C243.335 120.395 243.216 119.585 243.216 118.636C243.216 117.693 243.335 116.888 243.574 116.22C243.815 115.55 244.162 115.038 244.614 114.686C245.068 114.331 245.614 114.153 246.25 114.153C246.886 114.153 247.43 114.331 247.882 114.686C248.337 115.038 248.683 115.55 248.922 116.22C249.163 116.888 249.284 117.693 249.284 118.636C249.284 119.585 249.165 120.395 248.926 121.065C248.688 121.733 248.342 122.243 247.891 122.595C247.439 122.945 246.892 123.119 246.25 123.119ZM246.25 122.182C246.886 122.182 247.381 121.875 247.733 121.261C248.085 120.648 248.261 119.773 248.261 118.636C248.261 117.881 248.18 117.237 248.018 116.706C247.859 116.175 247.629 115.77 247.328 115.491C247.03 115.213 246.67 115.074 246.25 115.074C245.619 115.074 245.126 115.385 244.771 116.007C244.416 116.626 244.239 117.503 244.239 118.636C244.239 119.392 244.318 120.034 244.477 120.562C244.636 121.091 244.865 121.493 245.163 121.768C245.464 122.044 245.827 122.182 246.25 122.182Z" fill="#00A4DB"/>
<path d="M182.393 167.273V176H181.337V168.381H181.286L179.155 169.795V168.722L181.337 167.273H182.393ZM187.75 176.119C187.108 176.119 186.561 175.945 186.109 175.595C185.658 175.243 185.313 174.733 185.074 174.065C184.835 173.395 184.716 172.585 184.716 171.636C184.716 170.693 184.835 169.888 185.074 169.22C185.315 168.55 185.662 168.038 186.114 167.686C186.568 167.331 187.114 167.153 187.75 167.153C188.386 167.153 188.93 167.331 189.382 167.686C189.837 168.038 190.183 168.55 190.422 169.22C190.663 169.888 190.784 170.693 190.784 171.636C190.784 172.585 190.665 173.395 190.426 174.065C190.188 174.733 189.842 175.243 189.391 175.595C188.939 175.945 188.392 176.119 187.75 176.119ZM187.75 175.182C188.386 175.182 188.881 174.875 189.233 174.261C189.585 173.648 189.761 172.773 189.761 171.636C189.761 170.881 189.68 170.237 189.518 169.706C189.359 169.175 189.129 168.77 188.828 168.491C188.53 168.213 188.17 168.074 187.75 168.074C187.119 168.074 186.626 168.385 186.271 169.007C185.916 169.626 185.739 170.503 185.739 171.636C185.739 172.392 185.818 173.034 185.977 173.562C186.136 174.091 186.365 174.493 186.663 174.768C186.964 175.044 187.327 175.182 187.75 175.182ZM195.25 176.119C194.608 176.119 194.061 175.945 193.609 175.595C193.158 175.243 192.813 174.733 192.574 174.065C192.335 173.395 192.216 172.585 192.216 171.636C192.216 170.693 192.335 169.888 192.574 169.22C192.815 168.55 193.162 168.038 193.614 167.686C194.068 167.331 194.614 167.153 195.25 167.153C195.886 167.153 196.43 167.331 196.882 167.686C197.337 168.038 197.683 168.55 197.922 169.22C198.163 169.888 198.284 170.693 198.284 171.636C198.284 172.585 198.165 173.395 197.926 174.065C197.688 174.733 197.342 175.243 196.891 175.595C196.439 175.945 195.892 176.119 195.25 176.119ZM195.25 175.182C195.886 175.182 196.381 174.875 196.733 174.261C197.085 173.648 197.261 172.773 197.261 171.636C197.261 170.881 197.18 170.237 197.018 169.706C196.859 169.175 196.629 168.77 196.328 168.491C196.03 168.213 195.67 168.074 195.25 168.074C194.619 168.074 194.126 168.385 193.771 169.007C193.416 169.626 193.239 170.503 193.239 171.636C193.239 172.392 193.318 173.034 193.477 173.562C193.636 174.091 193.865 174.493 194.163 174.768C194.464 175.044 194.827 175.182 195.25 175.182Z" fill="#00A4DB"/>
<path d="M119.278 55.6364C119.278 54.5625 119.418 53.5753 119.696 52.6747C119.977 51.7713 120.378 50.9403 120.898 50.1818H121.784C121.58 50.4631 121.388 50.8097 121.209 51.2216C121.033 51.6307 120.878 52.081 120.744 52.5724C120.611 53.0611 120.506 53.5668 120.429 54.0895C120.355 54.6122 120.318 55.1278 120.318 55.6364C120.318 56.3125 120.384 56.9986 120.514 57.6946C120.645 58.3906 120.821 59.0369 121.043 59.6335C121.264 60.2301 121.511 60.7159 121.784 61.0909H120.898C120.378 60.3324 119.977 59.5028 119.696 58.6023C119.418 57.6989 119.278 56.7102 119.278 55.6364ZM126.098 60.1193C125.456 60.1193 124.909 59.9446 124.457 59.5952C124.005 59.2429 123.66 58.733 123.422 58.0653C123.183 57.3949 123.064 56.5852 123.064 55.6364C123.064 54.6932 123.183 53.8878 123.422 53.2202C123.663 52.5497 124.01 52.0384 124.461 51.6861C124.916 51.331 125.461 51.1534 126.098 51.1534C126.734 51.1534 127.278 51.331 127.73 51.6861C128.184 52.0384 128.531 52.5497 128.77 53.2202C129.011 53.8878 129.132 54.6932 129.132 55.6364C129.132 56.5852 129.012 57.3949 128.774 58.0653C128.535 58.733 128.19 59.2429 127.738 59.5952C127.287 59.9446 126.74 60.1193 126.098 60.1193ZM126.098 59.1818C126.734 59.1818 127.228 58.875 127.581 58.2614C127.933 57.6477 128.109 56.7727 128.109 55.6364C128.109 54.8807 128.028 54.2372 127.866 53.706C127.707 53.1747 127.477 52.7699 127.176 52.4915C126.877 52.2131 126.518 52.0739 126.098 52.0739C125.467 52.0739 124.974 52.3849 124.619 53.0071C124.264 53.6264 124.086 54.5028 124.086 55.6364C124.086 56.392 124.166 57.0341 124.325 57.5625C124.484 58.0909 124.713 58.4929 125.011 58.7685C125.312 59.044 125.674 59.1818 126.098 59.1818ZM131.963 58.8068L131.895 59.267C131.847 59.5909 131.773 59.9375 131.674 60.3068C131.577 60.6761 131.476 61.0241 131.371 61.3509C131.266 61.6776 131.179 61.9375 131.111 62.1307H130.344C130.381 61.9489 130.429 61.7088 130.489 61.4105C130.549 61.1122 130.608 60.7784 130.668 60.4091C130.73 60.0426 130.782 59.6676 130.821 59.2841L130.873 58.8068H131.963ZM136.352 60.1193C135.71 60.1193 135.163 59.9446 134.711 59.5952C134.259 59.2429 133.914 58.733 133.675 58.0653C133.437 57.3949 133.317 56.5852 133.317 55.6364C133.317 54.6932 133.437 53.8878 133.675 53.2202C133.917 52.5497 134.263 52.0384 134.715 51.6861C135.17 51.331 135.715 51.1534 136.352 51.1534C136.988 51.1534 137.532 51.331 137.984 51.6861C138.438 52.0384 138.785 52.5497 139.023 53.2202C139.265 53.8878 139.386 54.6932 139.386 55.6364C139.386 56.5852 139.266 57.3949 139.028 58.0653C138.789 58.733 138.444 59.2429 137.992 59.5952C137.54 59.9446 136.994 60.1193 136.352 60.1193ZM136.352 59.1818C136.988 59.1818 137.482 58.875 137.835 58.2614C138.187 57.6477 138.363 56.7727 138.363 55.6364C138.363 54.8807 138.282 54.2372 138.12 53.706C137.961 53.1747 137.731 52.7699 137.43 52.4915C137.131 52.2131 136.772 52.0739 136.352 52.0739C135.721 52.0739 135.228 52.3849 134.873 53.0071C134.518 53.6264 134.34 54.5028 134.34 55.6364C134.34 56.392 134.42 57.0341 134.579 57.5625C134.738 58.0909 134.967 58.4929 135.265 58.7685C135.566 59.044 135.928 59.1818 136.352 59.1818ZM143.17 55.6364C143.17 56.7102 143.029 57.6989 142.748 58.6023C142.469 59.5028 142.07 60.3324 141.55 61.0909H140.664C140.869 60.8097 141.059 60.4631 141.235 60.0511C141.414 59.642 141.57 59.1932 141.704 58.7045C141.837 58.2131 141.941 57.706 142.015 57.1832C142.092 56.6577 142.13 56.142 142.13 55.6364C142.13 54.9602 142.065 54.2741 141.934 53.5781C141.803 52.8821 141.627 52.2358 141.406 51.6392C141.184 51.0426 140.937 50.5568 140.664 50.1818H141.55C142.07 50.9403 142.469 51.7713 142.748 52.6747C143.029 53.5753 143.17 54.5625 143.17 55.6364Z" fill="#00A4DB"/>
<path d="M159.958 81.6364C159.958 80.5625 160.097 79.5753 160.376 78.6747C160.657 77.7713 161.058 76.9403 161.577 76.1818H162.464C162.259 76.4631 162.067 76.8097 161.888 77.2216C161.712 77.6307 161.558 78.081 161.424 78.5724C161.29 79.0611 161.185 79.5668 161.109 80.0895C161.035 80.6122 160.998 81.1278 160.998 81.6364C160.998 82.3125 161.063 82.9986 161.194 83.6946C161.325 84.3906 161.501 85.0369 161.722 85.6335C161.944 86.2301 162.191 86.7159 162.464 87.0909H161.577C161.058 86.3324 160.657 85.5028 160.376 84.6023C160.097 83.6989 159.958 82.7102 159.958 81.6364ZM166.658 86.1193C166.158 86.1193 165.708 86.0199 165.307 85.821C164.907 85.6222 164.586 85.3494 164.344 85.0028C164.103 84.6562 163.971 84.2614 163.948 83.8182H164.971C165.01 84.2131 165.189 84.5398 165.507 84.7983C165.828 85.054 166.212 85.1818 166.658 85.1818C167.016 85.1818 167.334 85.098 167.613 84.9304C167.894 84.7628 168.114 84.5327 168.273 84.2401C168.435 83.9446 168.516 83.6108 168.516 83.2386C168.516 82.858 168.432 82.5185 168.265 82.2202C168.1 81.919 167.873 81.6818 167.583 81.5085C167.293 81.3352 166.962 81.2472 166.59 81.2443C166.323 81.2415 166.049 81.2827 165.767 81.3679C165.486 81.4503 165.255 81.5568 165.073 81.6875L164.084 81.5682L164.613 77.2727H169.147V78.2102H165.499L165.192 80.7841H165.243C165.422 80.642 165.647 80.5241 165.917 80.4304C166.186 80.3366 166.468 80.2898 166.76 80.2898C167.294 80.2898 167.77 80.4176 168.188 80.6733C168.608 80.9261 168.938 81.2727 169.176 81.7131C169.418 82.1534 169.539 82.6562 169.539 83.2216C169.539 83.7784 169.414 84.2756 169.164 84.7131C168.917 85.1477 168.576 85.4915 168.141 85.7443C167.706 85.9943 167.212 86.1193 166.658 86.1193ZM174.078 86.1193C173.436 86.1193 172.889 85.9446 172.438 85.5952C171.986 85.2429 171.641 84.733 171.402 84.0653C171.163 83.3949 171.044 82.5852 171.044 81.6364C171.044 80.6932 171.163 79.8878 171.402 79.2202C171.643 78.5497 171.99 78.0384 172.442 77.6861C172.896 77.331 173.442 77.1534 174.078 77.1534C174.714 77.1534 175.259 77.331 175.71 77.6861C176.165 78.0384 176.511 78.5497 176.75 79.2202C176.991 79.8878 177.112 80.6932 177.112 81.6364C177.112 82.5852 176.993 83.3949 176.754 84.0653C176.516 84.733 176.17 85.2429 175.719 85.5952C175.267 85.9446 174.72 86.1193 174.078 86.1193ZM174.078 85.1818C174.714 85.1818 175.209 84.875 175.561 84.2614C175.913 83.6477 176.089 82.7727 176.089 81.6364C176.089 80.8807 176.009 80.2372 175.847 79.706C175.688 79.1747 175.457 78.7699 175.156 78.4915C174.858 78.2131 174.499 78.0739 174.078 78.0739C173.447 78.0739 172.955 78.3849 172.599 79.0071C172.244 79.6264 172.067 80.5028 172.067 81.6364C172.067 82.392 172.146 83.0341 172.305 83.5625C172.464 84.0909 172.693 84.4929 172.991 84.7685C173.293 85.044 173.655 85.1818 174.078 85.1818ZM179.944 84.8068L179.876 85.267C179.827 85.5909 179.754 85.9375 179.654 86.3068C179.558 86.6761 179.457 87.0241 179.352 87.3509C179.246 87.6776 179.16 87.9375 179.092 88.1307H178.325C178.362 87.9489 178.41 87.7088 178.469 87.4105C178.529 87.1122 178.589 86.7784 178.648 86.4091C178.711 86.0426 178.762 85.6676 178.802 85.2841L178.853 84.8068H179.944ZM181.79 86V85.233L184.671 82.0795C185.009 81.7102 185.287 81.3892 185.506 81.1165C185.725 80.8409 185.887 80.5824 185.992 80.3409C186.1 80.0966 186.154 79.8409 186.154 79.5739C186.154 79.267 186.08 79.0014 185.932 78.777C185.787 78.5526 185.588 78.3793 185.336 78.2571C185.083 78.1349 184.799 78.0739 184.483 78.0739C184.148 78.0739 183.855 78.1435 183.605 78.2827C183.358 78.419 183.167 78.6108 183.03 78.858C182.897 79.1051 182.83 79.3949 182.83 79.7273H181.824C181.824 79.2159 181.942 78.767 182.178 78.3807C182.414 77.9943 182.735 77.6932 183.141 77.4773C183.55 77.2614 184.009 77.1534 184.517 77.1534C185.029 77.1534 185.482 77.2614 185.877 77.4773C186.272 77.6932 186.581 77.9844 186.806 78.3509C187.03 78.7173 187.142 79.125 187.142 79.5739C187.142 79.8949 187.084 80.2088 186.968 80.5156C186.854 80.8196 186.655 81.1591 186.371 81.5341C186.09 81.9062 185.699 82.3608 185.199 82.8977L183.239 84.9943V85.0625H187.296V86H181.79ZM191.902 86.1193C191.26 86.1193 190.713 85.9446 190.262 85.5952C189.81 85.2429 189.465 84.733 189.226 84.0653C188.988 83.3949 188.868 82.5852 188.868 81.6364C188.868 80.6932 188.988 79.8878 189.226 79.2202C189.468 78.5497 189.814 78.0384 190.266 77.6861C190.721 77.331 191.266 77.1534 191.902 77.1534C192.539 77.1534 193.083 77.331 193.534 77.6861C193.989 78.0384 194.336 78.5497 194.574 79.2202C194.816 79.8878 194.936 80.6932 194.936 81.6364C194.936 82.5852 194.817 83.3949 194.578 84.0653C194.34 84.733 193.995 85.2429 193.543 85.5952C193.091 85.9446 192.544 86.1193 191.902 86.1193ZM191.902 85.1818C192.539 85.1818 193.033 84.875 193.385 84.2614C193.738 83.6477 193.914 82.7727 193.914 81.6364C193.914 80.8807 193.833 80.2372 193.671 79.706C193.512 79.1747 193.282 78.7699 192.98 78.4915C192.682 78.2131 192.323 78.0739 191.902 78.0739C191.272 78.0739 190.779 78.3849 190.424 79.0071C190.069 79.6264 189.891 80.5028 189.891 81.6364C189.891 82.392 189.971 83.0341 190.13 83.5625C190.289 84.0909 190.517 84.4929 190.816 84.7685C191.117 85.044 191.479 85.1818 191.902 85.1818ZM198.721 81.6364C198.721 82.7102 198.58 83.6989 198.299 84.6023C198.02 85.5028 197.621 86.3324 197.101 87.0909H196.215C196.419 86.8097 196.61 86.4631 196.786 86.0511C196.965 85.642 197.121 85.1932 197.255 84.7045C197.388 84.2131 197.492 83.706 197.566 83.1832C197.642 82.6577 197.681 82.142 197.681 81.6364C197.681 80.9602 197.615 80.2741 197.485 79.5781C197.354 78.8821 197.178 78.2358 196.956 77.6392C196.735 77.0426 196.488 76.5568 196.215 76.1818H197.101C197.621 76.9403 198.02 77.7713 198.299 78.6747C198.58 79.5753 198.721 80.5625 198.721 81.6364Z" fill="#009400"/>
<path d="M260.751 55.6364C260.751 54.5625 260.89 53.5753 261.169 52.6747C261.45 51.7713 261.85 50.9403 262.37 50.1818H263.257C263.052 50.4631 262.86 50.8097 262.681 51.2216C262.505 51.6307 262.35 52.081 262.217 52.5724C262.083 53.0611 261.978 53.5668 261.902 54.0895C261.828 54.6122 261.791 55.1278 261.791 55.6364C261.791 56.3125 261.856 56.9986 261.987 57.6946C262.118 58.3906 262.294 59.0369 262.515 59.6335C262.737 60.2301 262.984 60.7159 263.257 61.0909H262.37C261.85 60.3324 261.45 59.5028 261.169 58.6023C260.89 57.6989 260.751 56.7102 260.751 55.6364ZM267.792 51.2727V60H266.735V52.3807H266.684L264.553 53.7955V52.7216L266.735 51.2727H267.792ZM273.148 60.1193C272.506 60.1193 271.96 59.9446 271.508 59.5952C271.056 59.2429 270.711 58.733 270.472 58.0653C270.234 57.3949 270.114 56.5852 270.114 55.6364C270.114 54.6932 270.234 53.8878 270.472 53.2202C270.714 52.5497 271.06 52.0384 271.512 51.6861C271.967 51.331 272.512 51.1534 273.148 51.1534C273.785 51.1534 274.329 51.331 274.781 51.6861C275.235 52.0384 275.582 52.5497 275.82 53.2202C276.062 53.8878 276.183 54.6932 276.183 55.6364C276.183 56.5852 276.063 57.3949 275.825 58.0653C275.586 58.733 275.241 59.2429 274.789 59.5952C274.337 59.9446 273.79 60.1193 273.148 60.1193ZM273.148 59.1818C273.785 59.1818 274.279 58.875 274.631 58.2614C274.984 57.6477 275.16 56.7727 275.16 55.6364C275.16 54.8807 275.079 54.2372 274.917 53.706C274.758 53.1747 274.528 52.7699 274.227 52.4915C273.928 52.2131 273.569 52.0739 273.148 52.0739C272.518 52.0739 272.025 52.3849 271.67 53.0071C271.315 53.6264 271.137 54.5028 271.137 55.6364C271.137 56.392 271.217 57.0341 271.376 57.5625C271.535 58.0909 271.763 58.4929 272.062 58.7685C272.363 59.044 272.725 59.1818 273.148 59.1818ZM280.648 60.1193C280.006 60.1193 279.46 59.9446 279.008 59.5952C278.556 59.2429 278.211 58.733 277.972 58.0653C277.734 57.3949 277.614 56.5852 277.614 55.6364C277.614 54.6932 277.734 53.8878 277.972 53.2202C278.214 52.5497 278.56 52.0384 279.012 51.6861C279.467 51.331 280.012 51.1534 280.648 51.1534C281.285 51.1534 281.829 51.331 282.281 51.6861C282.735 52.0384 283.082 52.5497 283.32 53.2202C283.562 53.8878 283.683 54.6932 283.683 55.6364C283.683 56.5852 283.563 57.3949 283.325 58.0653C283.086 58.733 282.741 59.2429 282.289 59.5952C281.837 59.9446 281.29 60.1193 280.648 60.1193ZM280.648 59.1818C281.285 59.1818 281.779 58.875 282.131 58.2614C282.484 57.6477 282.66 56.7727 282.66 55.6364C282.66 54.8807 282.579 54.2372 282.417 53.706C282.258 53.1747 282.028 52.7699 281.727 52.4915C281.428 52.2131 281.069 52.0739 280.648 52.0739C280.018 52.0739 279.525 52.3849 279.17 53.0071C278.815 53.6264 278.637 54.5028 278.637 55.6364C278.637 56.392 278.717 57.0341 278.876 57.5625C279.035 58.0909 279.263 58.4929 279.562 58.7685C279.863 59.044 280.225 59.1818 280.648 59.1818ZM286.514 58.8068L286.446 59.267C286.398 59.5909 286.324 59.9375 286.224 60.3068C286.128 60.6761 286.027 61.0241 285.922 61.3509C285.817 61.6776 285.73 61.9375 285.662 62.1307H284.895C284.932 61.9489 284.98 61.7088 285.04 61.4105C285.099 61.1122 285.159 60.7784 285.219 60.4091C285.281 60.0426 285.332 59.6676 285.372 59.2841L285.423 58.8068H286.514ZM290.902 60.1193C290.26 60.1193 289.713 59.9446 289.262 59.5952C288.81 59.2429 288.465 58.733 288.226 58.0653C287.988 57.3949 287.868 56.5852 287.868 55.6364C287.868 54.6932 287.988 53.8878 288.226 53.2202C288.468 52.5497 288.814 52.0384 289.266 51.6861C289.721 51.331 290.266 51.1534 290.902 51.1534C291.539 51.1534 292.083 51.331 292.534 51.6861C292.989 52.0384 293.336 52.5497 293.574 53.2202C293.816 53.8878 293.936 54.6932 293.936 55.6364C293.936 56.5852 293.817 57.3949 293.578 58.0653C293.34 58.733 292.995 59.2429 292.543 59.5952C292.091 59.9446 291.544 60.1193 290.902 60.1193ZM290.902 59.1818C291.539 59.1818 292.033 58.875 292.385 58.2614C292.738 57.6477 292.914 56.7727 292.914 55.6364C292.914 54.8807 292.833 54.2372 292.671 53.706C292.512 53.1747 292.282 52.7699 291.98 52.4915C291.682 52.2131 291.323 52.0739 290.902 52.0739C290.272 52.0739 289.779 52.3849 289.424 53.0071C289.069 53.6264 288.891 54.5028 288.891 55.6364C288.891 56.392 288.971 57.0341 289.13 57.5625C289.289 58.0909 289.517 58.4929 289.816 58.7685C290.117 59.044 290.479 59.1818 290.902 59.1818ZM297.721 55.6364C297.721 56.7102 297.58 57.6989 297.299 58.6023C297.02 59.5028 296.621 60.3324 296.101 61.0909H295.215C295.419 60.8097 295.61 60.4631 295.786 60.0511C295.965 59.642 296.121 59.1932 296.255 58.7045C296.388 58.2131 296.492 57.706 296.566 57.1832C296.642 56.6577 296.681 56.142 296.681 55.6364C296.681 54.9602 296.615 54.2741 296.485 53.5781C296.354 52.8821 296.178 52.2358 295.956 51.6392C295.735 51.0426 295.488 50.5568 295.215 50.1818H296.101C296.621 50.9403 297.02 51.7713 297.299 52.6747C297.58 53.5753 297.721 54.5625 297.721 55.6364Z" fill="#00A4DB"/>
<path d="M119.278 221.636C119.278 220.562 119.418 219.575 119.696 218.675C119.977 217.771 120.378 216.94 120.898 216.182H121.784C121.58 216.463 121.388 216.81 121.209 217.222C121.033 217.631 120.878 218.081 120.744 218.572C120.611 219.061 120.506 219.567 120.429 220.089C120.355 220.612 120.318 221.128 120.318 221.636C120.318 222.312 120.384 222.999 120.514 223.695C120.645 224.391 120.821 225.037 121.043 225.634C121.264 226.23 121.511 226.716 121.784 227.091H120.898C120.378 226.332 119.977 225.503 119.696 224.602C119.418 223.699 119.278 222.71 119.278 221.636ZM126.098 226.119C125.456 226.119 124.909 225.945 124.457 225.595C124.005 225.243 123.66 224.733 123.422 224.065C123.183 223.395 123.064 222.585 123.064 221.636C123.064 220.693 123.183 219.888 123.422 219.22C123.663 218.55 124.01 218.038 124.461 217.686C124.916 217.331 125.461 217.153 126.098 217.153C126.734 217.153 127.278 217.331 127.73 217.686C128.184 218.038 128.531 218.55 128.77 219.22C129.011 219.888 129.132 220.693 129.132 221.636C129.132 222.585 129.012 223.395 128.774 224.065C128.535 224.733 128.19 225.243 127.738 225.595C127.287 225.945 126.74 226.119 126.098 226.119ZM126.098 225.182C126.734 225.182 127.228 224.875 127.581 224.261C127.933 223.648 128.109 222.773 128.109 221.636C128.109 220.881 128.028 220.237 127.866 219.706C127.707 219.175 127.477 218.77 127.176 218.491C126.877 218.213 126.518 218.074 126.098 218.074C125.467 218.074 124.974 218.385 124.619 219.007C124.264 219.626 124.086 220.503 124.086 221.636C124.086 222.392 124.166 223.034 124.325 223.562C124.484 224.091 124.713 224.493 125.011 224.768C125.312 225.044 125.674 225.182 126.098 225.182ZM131.963 224.807L131.895 225.267C131.847 225.591 131.773 225.938 131.674 226.307C131.577 226.676 131.476 227.024 131.371 227.351C131.266 227.678 131.179 227.938 131.111 228.131H130.344C130.381 227.949 130.429 227.709 130.489 227.411C130.549 227.112 130.608 226.778 130.668 226.409C130.73 226.043 130.782 225.668 130.821 225.284L130.873 224.807H131.963ZM135.835 217.273V226H134.778V218.381H134.727L132.596 219.795V218.722L134.778 217.273H135.835ZM141.191 226.119C140.549 226.119 140.002 225.945 139.551 225.595C139.099 225.243 138.754 224.733 138.515 224.065C138.277 223.395 138.157 222.585 138.157 221.636C138.157 220.693 138.277 219.888 138.515 219.22C138.757 218.55 139.103 218.038 139.555 217.686C140.01 217.331 140.555 217.153 141.191 217.153C141.828 217.153 142.372 217.331 142.824 217.686C143.278 218.038 143.625 218.55 143.863 219.22C144.105 219.888 144.225 220.693 144.225 221.636C144.225 222.585 144.106 223.395 143.868 224.065C143.629 224.733 143.284 225.243 142.832 225.595C142.38 225.945 141.833 226.119 141.191 226.119ZM141.191 225.182C141.828 225.182 142.322 224.875 142.674 224.261C143.027 223.648 143.203 222.773 143.203 221.636C143.203 220.881 143.122 220.237 142.96 219.706C142.801 219.175 142.571 218.77 142.27 218.491C141.971 218.213 141.612 218.074 141.191 218.074C140.561 218.074 140.068 218.385 139.713 219.007C139.358 219.626 139.18 220.503 139.18 221.636C139.18 222.392 139.26 223.034 139.419 223.562C139.578 224.091 139.806 224.493 140.105 224.768C140.406 225.044 140.768 225.182 141.191 225.182ZM148.691 226.119C148.049 226.119 147.502 225.945 147.051 225.595C146.599 225.243 146.254 224.733 146.015 224.065C145.777 223.395 145.657 222.585 145.657 221.636C145.657 220.693 145.777 219.888 146.015 219.22C146.257 218.55 146.603 218.038 147.055 217.686C147.51 217.331 148.055 217.153 148.691 217.153C149.328 217.153 149.872 217.331 150.324 217.686C150.778 218.038 151.125 218.55 151.363 219.22C151.605 219.888 151.725 220.693 151.725 221.636C151.725 222.585 151.606 223.395 151.368 224.065C151.129 224.733 150.784 225.243 150.332 225.595C149.88 225.945 149.333 226.119 148.691 226.119ZM148.691 225.182C149.328 225.182 149.822 224.875 150.174 224.261C150.527 223.648 150.703 222.773 150.703 221.636C150.703 220.881 150.622 220.237 150.46 219.706C150.301 219.175 150.071 218.77 149.77 218.491C149.471 218.213 149.112 218.074 148.691 218.074C148.061 218.074 147.568 218.385 147.213 219.007C146.858 219.626 146.68 220.503 146.68 221.636C146.68 222.392 146.76 223.034 146.919 223.562C147.078 224.091 147.306 224.493 147.605 224.768C147.906 225.044 148.268 225.182 148.691 225.182ZM155.51 221.636C155.51 222.71 155.369 223.699 155.088 224.602C154.809 225.503 154.41 226.332 153.89 227.091H153.004C153.208 226.81 153.399 226.463 153.575 226.051C153.754 225.642 153.91 225.193 154.044 224.705C154.177 224.213 154.281 223.706 154.355 223.183C154.431 222.658 154.47 222.142 154.47 221.636C154.47 220.96 154.404 220.274 154.274 219.578C154.143 218.882 153.967 218.236 153.745 217.639C153.524 217.043 153.277 216.557 153.004 216.182H153.89C154.41 216.94 154.809 217.771 155.088 218.675C155.369 219.575 155.51 220.562 155.51 221.636Z" fill="#00A4DB"/>
<path d="M65.4762 141.21V140.341L69.3114 134.273H69.9421V135.619H69.516L66.6183 140.205V140.273H71.783V141.21H65.4762ZM69.5842 143V140.946V140.541V134.273H70.5898V143H69.5842ZM76.2266 143.119C75.5845 143.119 75.0376 142.945 74.5859 142.595C74.1342 142.243 73.7891 141.733 73.5504 141.065C73.3118 140.395 73.1925 139.585 73.1925 138.636C73.1925 137.693 73.3118 136.888 73.5504 136.22C73.7919 135.55 74.1385 135.038 74.5902 134.686C75.0447 134.331 75.5902 134.153 76.2266 134.153C76.8629 134.153 77.407 134.331 77.8587 134.686C78.3132 135.038 78.6598 135.55 78.8984 136.22C79.1399 136.888 79.2607 137.693 79.2607 138.636C79.2607 139.585 79.1413 140.395 78.9027 141.065C78.6641 141.733 78.3189 142.243 77.8672 142.595C77.4155 142.945 76.8686 143.119 76.2266 143.119ZM76.2266 142.182C76.8629 142.182 77.3572 141.875 77.7095 141.261C78.0618 140.648 78.2379 139.773 78.2379 138.636C78.2379 137.881 78.157 137.237 77.995 136.706C77.8359 136.175 77.6058 135.77 77.3047 135.491C77.0064 135.213 76.647 135.074 76.2266 135.074C75.5959 135.074 75.103 135.385 74.7479 136.007C74.3928 136.626 74.2152 137.503 74.2152 138.636C74.2152 139.392 74.2947 140.034 74.4538 140.562C74.6129 141.091 74.8416 141.493 75.1399 141.768C75.4411 142.044 75.8033 142.182 76.2266 142.182ZM83.7266 143.119C83.0845 143.119 82.5376 142.945 82.0859 142.595C81.6342 142.243 81.2891 141.733 81.0504 141.065C80.8118 140.395 80.6925 139.585 80.6925 138.636C80.6925 137.693 80.8118 136.888 81.0504 136.22C81.2919 135.55 81.6385 135.038 82.0902 134.686C82.5447 134.331 83.0902 134.153 83.7266 134.153C84.3629 134.153 84.907 134.331 85.3587 134.686C85.8132 135.038 86.1598 135.55 86.3984 136.22C86.6399 136.888 86.7607 137.693 86.7607 138.636C86.7607 139.585 86.6413 140.395 86.4027 141.065C86.1641 141.733 85.8189 142.243 85.3672 142.595C84.9155 142.945 84.3686 143.119 83.7266 143.119ZM83.7266 142.182C84.3629 142.182 84.8572 141.875 85.2095 141.261C85.5618 140.648 85.7379 139.773 85.7379 138.636C85.7379 137.881 85.657 137.237 85.495 136.706C85.3359 136.175 85.1058 135.77 84.8047 135.491C84.5064 135.213 84.147 135.074 83.7266 135.074C83.0959 135.074 82.603 135.385 82.2479 136.007C81.8928 136.626 81.7152 137.503 81.7152 138.636C81.7152 139.392 81.7947 140.034 81.9538 140.562C82.1129 141.091 82.3416 141.493 82.6399 141.768C82.9411 142.044 83.3033 142.182 83.7266 142.182ZM88.397 145.455V136.455H89.3686V137.494H89.4879C89.5618 137.381 89.6641 137.236 89.7947 137.06C89.9283 136.881 90.1186 136.722 90.3658 136.582C90.6158 136.44 90.9538 136.369 91.38 136.369C91.9311 136.369 92.4169 136.507 92.8374 136.783C93.2578 137.058 93.5859 137.449 93.8217 137.955C94.0575 138.46 94.1754 139.057 94.1754 139.744C94.1754 140.438 94.0575 141.038 93.8217 141.547C93.5859 142.053 93.2592 142.445 92.8416 142.723C92.424 142.999 91.9425 143.136 91.397 143.136C90.9766 143.136 90.6399 143.067 90.3871 142.928C90.1342 142.786 89.9396 142.625 89.8033 142.446C89.6669 142.264 89.5618 142.114 89.4879 141.994H89.4027V145.455H88.397ZM89.3857 139.727C89.3857 140.222 89.4581 140.658 89.603 141.036C89.7479 141.411 89.9595 141.705 90.2379 141.918C90.5163 142.128 90.8572 142.233 91.2607 142.233C91.6811 142.233 92.032 142.122 92.3132 141.901C92.5973 141.676 92.8104 141.375 92.9524 140.997C93.0973 140.616 93.1697 140.193 93.1697 139.727C93.1697 139.267 93.0987 138.852 92.9567 138.483C92.8175 138.111 92.6058 137.817 92.3217 137.601C92.0405 137.382 91.6868 137.273 91.2607 137.273C90.8516 137.273 90.5078 137.376 90.2294 137.584C89.951 137.788 89.7408 138.075 89.5987 138.445C89.4567 138.811 89.3857 139.239 89.3857 139.727ZM96.19 136.455L97.7582 139.131L99.3263 136.455H100.485L98.3718 139.727L100.485 143H99.3263L97.7582 140.46L96.19 143H95.0309L97.1104 139.727L95.0309 136.455H96.19Z" fill="#E3116C"/>
<path d="M113.646 35.6464C113.451 35.8417 113.451 36.1583 113.646 36.3536L116.828 39.5355C117.024 39.7308 117.34 39.7308 117.536 39.5355C117.731 39.3403 117.731 39.0237 117.536 38.8284L114.707 36L117.536 33.1716C117.731 32.9763 117.731 32.6597 117.536 32.4645C117.34 32.2692 117.024 32.2692 116.828 32.4645L113.646 35.6464ZM303.354 36.3536C303.549 36.1583 303.549 35.8417 303.354 35.6465L300.172 32.4645C299.976 32.2692 299.66 32.2692 299.464 32.4645C299.269 32.6597 299.269 32.9763 299.464 33.1716L302.293 36L299.464 38.8284C299.269 39.0237 299.269 39.3403 299.464 39.5356C299.66 39.7308 299.976 39.7308 300.172 39.5356L303.354 36.3536ZM114 36.5L303 36.5L303 35.5L114 35.5L114 36.5Z" fill="#E3116C"/>
<path d="M114.354 44.3536C114.549 44.1583 114.549 43.8417 114.354 43.6464L111.172 40.4645C110.976 40.2692 110.66 40.2692 110.465 40.4645C110.269 40.6597 110.269 40.9763 110.465 41.1716L113.293 44L110.465 46.8284C110.269 47.0237 110.269 47.3403 110.465 47.5355C110.66 47.7308 110.976 47.7308 111.172 47.5355L114.354 44.3536ZM113.646 43.6464C113.451 43.8417 113.451 44.1583 113.646 44.3536L116.828 47.5355C117.024 47.7308 117.34 47.7308 117.536 47.5355C117.731 47.3403 117.731 47.0237 117.536 46.8284L114.707 44L117.536 41.1716C117.731 40.9763 117.731 40.6597 117.536 40.4645C117.34 40.2692 117.024 40.2692 116.828 40.4645L113.646 43.6464ZM114 43.5H114V44.5H114V43.5Z" fill="#2C55EF"/>
<path d="M208.354 82.3536C208.549 82.1583 208.549 81.8417 208.354 81.6464L205.172 78.4645C204.976 78.2692 204.66 78.2692 204.465 78.4645C204.269 78.6597 204.269 78.9763 204.465 79.1716L207.293 82L204.465 84.8284C204.269 85.0237 204.269 85.3403 204.465 85.5355C204.66 85.7308 204.976 85.7308 205.172 85.5355L208.354 82.3536ZM207.646 81.6464C207.451 81.8417 207.451 82.1583 207.646 82.3536L210.828 85.5355C211.024 85.7308 211.34 85.7308 211.536 85.5355C211.731 85.3403 211.731 85.0237 211.536 84.8284L208.707 82L211.536 79.1716C211.731 78.9763 211.731 78.6597 211.536 78.4645C211.34 78.2692 211.024 78.2692 210.828 78.4645L207.646 81.6464ZM208 81.5H208V82.5H208V81.5Z" fill="black"/>
<path d="M105.352 43.6446C105.155 43.4504 104.839 43.452 104.645 43.6483L101.479 46.8471C101.285 47.0434 101.287 47.36 101.483 47.5542C101.68 47.7484 101.996 47.7467 102.19 47.5504L105.004 44.7071L107.847 47.5205C108.043 47.7147 108.36 47.7131 108.554 47.5168C108.748 47.3205 108.747 47.0039 108.55 46.8097L105.352 43.6446ZM105.648 233.355C105.845 233.55 106.161 233.548 106.355 233.352L109.521 230.153C109.715 229.957 109.713 229.64 109.517 229.446C109.32 229.252 109.004 229.253 108.81 229.45L105.996 232.293L103.153 229.479C102.957 229.285 102.64 229.287 102.446 229.483C102.252 229.68 102.253 229.996 102.45 230.19L105.648 233.355ZM104.5 44.0026L105.5 233.003L106.5 232.997L105.5 43.9974L104.5 44.0026Z" fill="#E3116C"/>
<path d="M253.354 51.6464C253.158 51.4512 252.842 51.4512 252.646 51.6464L249.464 54.8284C249.269 55.0237 249.269 55.3403 249.464 55.5355C249.66 55.7308 249.976 55.7308 250.172 55.5355L253 52.7071L255.828 55.5355C256.024 55.7308 256.34 55.7308 256.536 55.5355C256.731 55.3403 256.731 55.0237 256.536 54.8284L253.354 51.6464ZM252.646 225.354C252.842 225.549 253.158 225.549 253.354 225.354L256.536 222.172C256.731 221.976 256.731 221.66 256.536 221.464C256.34 221.269 256.024 221.269 255.828 221.464L253 224.293L250.172 221.464C249.976 221.269 249.66 221.269 249.464 221.464C249.269 221.66 249.269 221.976 249.464 222.172L252.646 225.354ZM252.5 52L252.5 225L253.5 225L253.5 52L252.5 52Z" fill="#00A4DB"/>
<path d="M121.646 182.646C121.451 182.842 121.451 183.158 121.646 183.354L124.828 186.536C125.024 186.731 125.34 186.731 125.536 186.536C125.731 186.34 125.731 186.024 125.536 185.828L122.707 183L125.536 180.172C125.731 179.976 125.731 179.66 125.536 179.464C125.34 179.269 125.024 179.269 124.828 179.464L121.646 182.646ZM295.354 183.354C295.549 183.158 295.549 182.842 295.354 182.646L292.172 179.464C291.976 179.269 291.66 179.269 291.464 179.464C291.269 179.66 291.269 179.976 291.464 180.172L294.293 183L291.464 185.828C291.269 186.024 291.269 186.34 291.464 186.536C291.66 186.731 291.976 186.731 292.172 186.536L295.354 183.354ZM122 183.5H295V182.5H122V183.5Z" fill="#00A4DB"/>
</svg>
